<?xml version="1.0" encoding="utf-8"?>
<svg xmlns="http://www.w3.org/2000/svg" style="margin: auto; background: rgb(0, 0, 0); display: block; shape-rendering: auto;" width="280" height="250" preserveAspectRatio="xMidYMid">
<style type="text/css">
  text {
    text-anchor: middle; font-size: 33px; opacity: 0;
  }
</style>
<g style="transform-origin: 140px 125px; transform: scale(0.4125);">
<g transform="translate(140,125)">
  <g transform="translate(0,0)"><g class="path" style="opacity: 1; transform-origin: -219.155px -4.64204px; animation: 1s linear -0.6s infinite normal forwards running fade-f07a7fa5-cbaf-4d08-88b4-9aa1487c1b13;"><path d="M21.88-24.53L21.88 0L6.37 0L6.37-56.25L21.88-56.25L21.88-31.68L42.42-31.68L42.42-56.25L57.93-56.25L57.93 0L42.42 0L42.42-24.53L21.88-24.53" fill="#f1edf1" stroke="none" stroke-width="none" transform="translate(-251.30499267578125,23.482961675470523)" style="fill: rgb(241, 237, 241);"></path></g><g class="path" style="opacity: 1; transform-origin: -175.31px -32.512px; animation: 1s linear -0.54s infinite normal forwards running fade-f07a7fa5-cbaf-4d08-88b4-9aa1487c1b13;"><path d="M83.20-56.02L83.20-56.02L83.20-56.02Q83.20-54.53 82.64-53.20L82.64-53.20L82.64-53.20Q82.07-51.88 81.09-50.90L81.09-50.90L81.09-50.90Q80.12-49.92 78.79-49.36L78.79-49.36L78.79-49.36Q77.46-48.79 75.98-48.79L75.98-48.79L75.98-48.79Q74.49-48.79 73.18-49.36L73.18-49.36L73.18-49.36Q71.88-49.92 70.90-50.90L70.90-50.90L70.90-50.90Q69.92-51.88 69.36-53.20L69.36-53.20L69.36-53.20Q68.79-54.53 68.79-56.02L68.79-56.02L68.79-56.02Q68.79-57.50 69.36-58.81L69.36-58.81L69.36-58.81Q69.92-60.12 70.90-61.09L70.90-61.09L70.90-61.09Q71.88-62.07 73.18-62.64L73.18-62.64L73.18-62.64Q74.49-63.20 75.98-63.20L75.98-63.20L75.98-63.20Q77.46-63.20 78.79-62.64L78.79-62.64L78.79-62.64Q80.12-62.07 81.09-61.09L81.09-61.09L81.09-61.09Q82.07-60.12 82.64-58.81L82.64-58.81L82.64-58.81Q83.20-57.50 83.20-56.02" fill="#f1edf1" stroke="none" stroke-width="none" transform="translate(-251.30499267578125,23.482961675470523)" style="fill: rgb(244, 221, 255);"></path></g><g class="path" style="opacity: 1; transform-origin: -175.305px 0.942961px; animation: 1s linear -0.48s infinite normal forwards running fade-f07a7fa5-cbaf-4d08-88b4-9aa1487c1b13;"><path d="M82.62-45.08L82.62 0L69.38 0L69.38-45.08L82.62-45.08" fill="#f1edf1" stroke="none" stroke-width="none" transform="translate(-251.30499267578125,23.482961675470523)" style="fill: rgb(244, 204, 249);"></path></g><g class="path" style="opacity: 1; transform-origin: -112.75px -4.76204px; animation: 1s linear -0.42s infinite normal forwards running fade-f07a7fa5-cbaf-4d08-88b4-9aa1487c1b13;"><path d="M163.28-17.19L163.28-17.19L163.28-17.19Q163.28-13.55 162.36-10.78L162.36-10.78L162.36-10.78Q161.45-8.01 159.79-5.98L159.79-5.98L159.79-5.98Q158.13-3.95 155.86-2.58L155.86-2.58L155.86-2.58Q153.59-1.21 150.92-0.39L150.92-0.39L150.92-0.39Q148.24 0.43 145.25 0.78L145.25 0.78L145.25 0.78Q142.27 1.13 139.18 1.13L139.18 1.13L139.18 1.13Q135.12 1.13 131.68 0.53L131.68 0.53L131.68 0.53Q128.24-0.08 125.21-1.39L125.21-1.39L125.21-1.39Q122.19-2.70 119.39-4.77L119.39-4.77L119.39-4.77Q116.60-6.84 113.83-9.80L113.83-9.80L121.80-17.89L121.80-17.89Q122.89-15.20 124.80-12.91L124.80-12.91L124.80-12.91Q126.72-10.63 129.00-8.98L129.00-8.98L129.00-8.98Q131.29-7.34 133.75-6.41L133.75-6.41L133.75-6.41Q136.21-5.47 138.40-5.47L138.40-5.47L138.40-5.47Q140.98-5.47 143.24-5.84L143.24-5.84L143.24-5.84Q145.51-6.21 147.19-7.07L147.19-7.07L147.19-7.07Q148.87-7.93 149.82-9.36L149.82-9.36L149.82-9.36Q150.78-10.78 150.78-12.93L150.78-12.93L150.78-12.93Q150.78-14.57 150.04-15.74L150.04-15.74L150.04-15.74Q149.30-16.91 148.11-17.75L148.11-17.75L148.11-17.75Q146.91-18.59 145.39-19.18L145.39-19.18L145.39-19.18Q143.87-19.77 142.29-20.18L142.29-20.18L142.29-20.18Q140.70-20.59 139.18-20.92L139.18-20.92L139.18-20.92Q137.66-21.25 136.48-21.60L136.48-21.60L136.48-21.60Q134.18-22.27 131.68-23.03L131.68-23.03L131.68-23.03Q129.18-23.79 126.76-24.77L126.76-24.77L126.76-24.77Q124.34-25.74 122.17-27.01L122.17-27.01L122.17-27.01Q120-28.28 118.36-30.02L118.36-30.02L118.36-30.02Q116.72-31.76 115.74-34.04L115.74-34.04L115.74-34.04Q114.77-36.33 114.77-39.30L114.77-39.30L114.77-39.30Q114.77-42.85 115.64-45.61L115.64-45.61L115.64-45.61Q116.52-48.36 118.13-50.39L118.13-50.39L118.13-50.39Q119.73-52.42 121.91-53.81L121.91-53.81L121.91-53.81Q124.10-55.20 126.72-56.04L126.72-56.04L126.72-56.04Q129.34-56.88 132.29-57.25L132.29-57.25L132.29-57.25Q135.23-57.62 138.32-57.62L138.32-57.62L138.32-57.62Q142.54-57.62 146.00-56.84L146.00-56.84L146.00-56.84Q149.45-56.05 152.38-54.61L152.38-54.61L152.38-54.61Q155.31-53.16 157.75-51.15L157.75-51.15L157.75-51.15Q160.20-49.14 162.34-46.68L162.34-46.68L154.38-38.59L154.38-38.59Q153.44-41.41 151.78-43.67L151.78-43.67L151.78-43.67Q150.12-45.94 148.09-47.56L148.09-47.56L148.09-47.56Q146.05-49.18 143.83-50.06L143.83-50.06L143.83-50.06Q141.60-50.94 139.53-50.94L139.53-50.94L139.53-50.94Q136.84-50.94 134.57-50.57L134.57-50.57L134.57-50.57Q132.30-50.20 130.68-49.36L130.68-49.36L130.68-49.36Q129.06-48.52 128.16-47.09L128.16-47.09L128.16-47.09Q127.27-45.66 127.27-43.55L127.27-43.55L127.27-43.55Q127.27-41.88 127.93-40.70L127.93-40.70L127.93-40.70Q128.59-39.53 129.71-38.71L129.71-38.71L129.71-38.71Q130.82-37.89 132.23-37.36L132.23-37.36L132.23-37.36Q133.63-36.84 135.14-36.45L135.14-36.45L135.14-36.45Q136.64-36.05 138.11-35.76L138.11-35.76L138.11-35.76Q139.57-35.47 140.78-35.12L140.78-35.12L140.78-35.12Q143.13-34.45 145.70-33.71L145.70-33.71L145.70-33.71Q148.28-32.97 150.78-31.97L150.78-31.97L150.78-31.97Q153.28-30.98 155.55-29.69L155.55-29.69L155.55-29.69Q157.81-28.40 159.53-26.62L159.53-26.62L159.53-26.62Q161.25-24.84 162.27-22.52L162.27-22.52L162.27-22.52Q163.28-20.20 163.28-17.19" fill="#f1edf1" stroke="none" stroke-width="none" transform="translate(-251.30499267578125,23.482961675470523)" style="fill: rgb(214, 171, 232);"></path></g><g class="path" style="opacity: 1; transform-origin: -66.715px -7.37704px; animation: 1s linear -0.36s infinite normal forwards running fade-f07a7fa5-cbaf-4d08-88b4-9aa1487c1b13;"><path d="M188.48-39.88L188.48 0L175.23 0L175.23-39.88L167.03-39.88L167.03-45.12L175.23-45.12L175.23-61.72L188.48-61.72L188.48-45.12L202.15-45.12L202.15-39.88L188.48-39.88" fill="#f1edf1" stroke="none" stroke-width="none" transform="translate(-251.30499267578125,23.482961675470523)" style="fill: rgb(200, 156, 234);"></path></g><g class="path" style="opacity: 1; transform-origin: -23.845px 0.377962px; animation: 1s linear -0.3s infinite normal forwards running fade-f07a7fa5-cbaf-4d08-88b4-9aa1487c1b13;"><path d="M246.64-41.13L246.64-41.13L239.22-28.83L239.22-28.83Q238.75-30.39 238.01-32.34L238.01-32.34L238.01-32.34Q237.27-34.30 236.17-36.00L236.17-36.00L236.17-36.00Q235.08-37.70 233.55-38.85L233.55-38.85L233.55-38.85Q232.03-40 230.04-40L230.04-40L230.04-40Q228.20-40 226.86-39.06L226.86-39.06L226.86-39.06Q225.51-38.13 224.57-36.62L224.57-36.62L224.57-36.62Q223.63-35.12 223.03-33.22L223.03-33.22L223.03-33.22Q222.42-31.33 222.09-29.39L222.09-29.39L222.09-29.39Q221.76-27.46 221.64-25.68L221.64-25.68L221.64-25.68Q221.52-23.91 221.52-22.62L221.52-22.62L221.52 0L208.28 0L208.28-45.12L213.36-45.12L218.71-34.61L218.71-34.61Q219.80-37.15 221.21-39.28L221.21-39.28L221.21-39.28Q222.62-41.41 224.45-42.95L224.45-42.95L224.45-42.95Q226.29-44.49 228.61-45.35L228.61-45.35L228.61-45.35Q230.94-46.21 233.87-46.21L233.87-46.21L233.87-46.21Q235.39-46.21 237.27-45.96L237.27-45.96L237.27-45.96Q239.14-45.70 240.94-45.10L240.94-45.10L240.94-45.10Q242.73-44.49 244.26-43.52L244.26-43.52L244.26-43.52Q245.78-42.54 246.64-41.13" fill="#f1edf1" stroke="none" stroke-width="none" transform="translate(-251.30499267578125,23.482961675470523)" style="fill: rgb(241, 237, 241);"></path></g><g class="path" style="opacity: 1; transform-origin: 21.39px 0.827963px; animation: 1s linear -0.24s infinite normal forwards running fade-f07a7fa5-cbaf-4d08-88b4-9aa1487c1b13;"><path d="M296.68-45.12L296.68 0L283.48 0L283.48-5.39L283.48-5.39Q281.13-2.19 277.83-0.64L277.83-0.64L277.83-0.64Q274.53 0.90 270.59 0.90L270.59 0.90L270.59 0.90Q265.43 0.90 261.37-0.94L261.37-0.94L261.37-0.94Q257.30-2.77 254.49-5.96L254.49-5.96L254.49-5.96Q251.68-9.14 250.20-13.44L250.20-13.44L250.20-13.44Q248.71-17.73 248.71-22.66L248.71-22.66L248.71-22.66Q248.71-27.58 250.20-31.88L250.20-31.88L250.20-31.88Q251.68-36.17 254.49-39.36L254.49-39.36L254.49-39.36Q257.30-42.54 261.37-44.38L261.37-44.38L261.37-44.38Q265.43-46.21 270.59-46.21L270.59-46.21L270.59-46.21Q273.20-46.21 275.57-45.43L275.57-45.43L275.57-45.43Q277.93-44.65 279.90-43.22L279.90-43.22L279.90-43.22Q281.88-41.80 283.38-39.79L283.38-39.79L283.38-39.79Q284.88-37.77 285.74-35.31L285.74-35.31L291.60-45.12L296.68-45.12zM283.40-22.66L283.40-22.66L283.40-22.66Q283.40-24.41 283.22-26.37L283.22-26.37L283.22-26.37Q283.05-28.32 282.62-30.23L282.62-30.23L282.62-30.23Q282.19-32.15 281.43-33.89L281.43-33.89L281.43-33.89Q280.66-35.63 279.47-36.97L279.47-36.97L279.47-36.97Q278.28-38.32 276.60-39.10L276.60-39.10L276.60-39.10Q274.92-39.88 272.70-39.88L272.70-39.88L272.70-39.88Q270.47-39.88 268.83-39.08L268.83-39.08L268.83-39.08Q267.19-38.28 266.02-36.93L266.02-36.93L266.02-36.93Q264.84-35.59 264.08-33.83L264.08-33.83L264.08-33.83Q263.32-32.07 262.89-30.16L262.89-30.16L262.89-30.16Q262.46-28.24 262.29-26.31L262.29-26.31L262.29-26.31Q262.11-24.38 262.11-22.66L262.11-22.66L262.11-22.66Q262.11-20.94 262.29-18.98L262.29-18.98L262.29-18.98Q262.46-17.03 262.89-15.12L262.89-15.12L262.89-15.12Q263.32-13.20 264.08-11.45L264.08-11.45L264.08-11.45Q264.84-9.69 266.02-8.34L266.02-8.34L266.02-8.34Q267.19-6.99 268.83-6.19L268.83-6.19L268.83-6.19Q270.47-5.39 272.70-5.39L272.70-5.39L272.70-5.39Q274.73-5.39 276.31-6.23L276.31-6.23L276.31-6.23Q277.89-7.07 279.08-8.48L279.08-8.48L279.08-8.48Q280.27-9.88 281.09-11.68L281.09-11.68L281.09-11.68Q281.91-13.48 282.42-15.39L282.42-15.39L282.42-15.39Q282.93-17.30 283.16-19.20L283.16-19.20L283.16-19.20Q283.40-21.09 283.40-22.66" fill="#f1edf1" stroke="none" stroke-width="none" transform="translate(-251.30499267578125,23.482961675470523)" style="fill: rgb(244, 221, 255);"></path></g><g class="path" style="opacity: 1; transform-origin: 79.46px 5.18296px; animation: 1s linear -0.18s infinite normal forwards running fade-f07a7fa5-cbaf-4d08-88b4-9aa1487c1b13;"><path d="M353.83-25.86L353.83-25.86L353.83-25.86Q353.83-21.29 352.71-16.33L352.71-16.33L352.71-16.33Q351.60-11.37 349.61-6.60L349.61-6.60L349.61-6.60Q347.62-1.84 344.84 2.36L344.84 2.36L344.84 2.36Q342.07 6.56 338.75 9.61L338.75 9.61L333.79 6.91L333.79 6.91Q334.84 4.96 335.78 2.54L335.78 2.54L335.78 2.54Q336.72 0.12 337.48-2.60L337.48-2.60L337.48-2.60Q338.24-5.31 338.85-8.20L338.85-8.20L338.85-8.20Q339.45-11.09 339.86-13.93L339.86-13.93L339.86-13.93Q340.27-16.76 340.49-19.43L340.49-19.43L340.49-19.43Q340.70-22.11 340.70-24.41L340.70-24.41L340.70-24.41Q340.70-25.94 340.59-27.68L340.59-27.68L340.59-27.68Q340.47-29.41 340.10-31.15L340.10-31.15L340.10-31.15Q339.73-32.89 339.10-34.49L339.10-34.49L339.10-34.49Q338.48-36.09 337.44-37.30L337.44-37.30L337.44-37.30Q336.41-38.52 334.94-39.26L334.94-39.26L334.94-39.26Q333.48-40 331.48-40L331.48-40L331.48-40Q329.53-40 328.01-39.12L328.01-39.12L328.01-39.12Q326.48-38.24 325.31-36.82L325.31-36.82L325.31-36.82Q324.14-35.39 323.30-33.55L323.30-33.55L323.30-33.55Q322.46-31.72 321.93-29.79L321.93-29.79L321.93-29.79Q321.41-27.85 321.17-25.98L321.17-25.98L321.17-25.98Q320.94-24.10 320.94-22.62L320.94-22.62L320.94 0L307.70 0L307.70-45.12L312.77-45.12L318.83-34.61L318.83-34.61Q319.92-37.23 321.56-39.38L321.56-39.38L321.56-39.38Q323.20-41.52 325.27-43.05L325.27-43.05L325.27-43.05Q327.34-44.57 329.86-45.39L329.86-45.39L329.86-45.39Q332.38-46.21 335.31-46.21L335.31-46.21L335.31-46.21Q340-46.21 343.48-44.69L343.48-44.69L343.48-44.69Q346.95-43.16 349.26-40.45L349.26-40.45L349.26-40.45Q351.56-37.73 352.70-34.00L352.70-34.00L352.70-34.00Q353.83-30.27 353.83-25.86" fill="#f1edf1" stroke="none" stroke-width="none" transform="translate(-251.30499267578125,23.482961675470523)" style="fill: rgb(244, 204, 249);"></path></g><g class="path" style="opacity: 1; transform-origin: 132.68px 10.788px; animation: 1s linear -0.12s infinite normal forwards running fade-f07a7fa5-cbaf-4d08-88b4-9aa1487c1b13;"><path d="M407.97-45.12L407.97-5.43L407.97-5.43Q407.97-0.04 406.37 4.73L406.37 4.73L406.37 4.73Q404.77 9.49 401.72 13.07L401.72 13.07L401.72 13.07Q398.67 16.64 394.24 18.73L394.24 18.73L394.24 18.73Q389.80 20.82 384.14 20.82L384.14 20.82L384.14 20.82Q381.02 20.82 377.83 20.12L377.83 20.12L377.83 20.12Q374.65 19.41 371.82 17.95L371.82 17.95L371.82 17.95Q368.98 16.48 366.74 14.24L366.74 14.24L366.74 14.24Q364.49 11.99 363.20 8.95L363.20 8.95L368.91 6.80L368.91 6.80Q369.65 8.71 370.84 10.31L370.84 10.31L370.84 10.31Q372.03 11.91 373.59 13.07L373.59 13.07L373.59 13.07Q375.16 14.22 377.03 14.86L377.03 14.86L377.03 14.86Q378.91 15.51 380.98 15.51L380.98 15.51L380.98 15.51Q384.88 15.51 387.52 13.91L387.52 13.91L387.52 13.91Q390.16 12.30 391.76 9.73L391.76 9.73L391.76 9.73Q393.36 7.15 394.06 3.89L394.06 3.89L394.06 3.89Q394.77 0.63 394.77-2.73L394.77-2.73L394.77-5.39L394.77-5.39Q392.42-2.19 389.12-0.64L389.12-0.64L389.12-0.64Q385.82 0.90 381.88 0.90L381.88 0.90L381.88 0.90Q376.72 0.90 372.66-0.94L372.66-0.94L372.66-0.94Q368.59-2.77 365.78-5.96L365.78-5.96L365.78-5.96Q362.97-9.14 361.48-13.44L361.48-13.44L361.48-13.44Q360-17.73 360-22.66L360-22.66L360-22.66Q360-27.58 361.48-31.88L361.48-31.88L361.48-31.88Q362.97-36.17 365.78-39.36L365.78-39.36L365.78-39.36Q368.59-42.54 372.66-44.38L372.66-44.38L372.66-44.38Q376.72-46.21 381.88-46.21L381.88-46.21L381.88-46.21Q384.49-46.21 386.86-45.43L386.86-45.43L386.86-45.43Q389.22-44.65 391.19-43.22L391.19-43.22L391.19-43.22Q393.16-41.80 394.67-39.79L394.67-39.79L394.67-39.79Q396.17-37.77 397.03-35.31L397.03-35.31L402.89-45.12L407.97-45.12zM394.69-22.66L394.69-22.66L394.69-22.66Q394.69-24.41 394.51-26.37L394.51-26.37L394.51-26.37Q394.34-28.32 393.91-30.23L393.91-30.23L393.91-30.23Q393.48-32.15 392.71-33.89L392.71-33.89L392.71-33.89Q391.95-35.63 390.76-36.97L390.76-36.97L390.76-36.97Q389.57-38.32 387.89-39.10L387.89-39.10L387.89-39.10Q386.21-39.88 383.98-39.88L383.98-39.88L383.98-39.88Q381.76-39.88 380.12-39.08L380.12-39.08L380.12-39.08Q378.48-38.28 377.30-36.93L377.30-36.93L377.30-36.93Q376.13-35.59 375.37-33.83L375.37-33.83L375.37-33.83Q374.61-32.07 374.18-30.16L374.18-30.16L374.18-30.16Q373.75-28.24 373.57-26.31L373.57-26.31L373.57-26.31Q373.40-24.38 373.40-22.66L373.40-22.66L373.40-22.66Q373.40-20.94 373.57-18.98L373.57-18.98L373.57-18.98Q373.75-17.03 374.18-15.12L374.18-15.12L374.18-15.12Q374.61-13.20 375.37-11.45L375.37-11.45L375.37-11.45Q376.13-9.69 377.30-8.34L377.30-8.34L377.30-8.34Q378.48-6.99 380.12-6.19L380.12-6.19L380.12-6.19Q381.76-5.39 383.98-5.39L383.98-5.39L383.98-5.39Q386.02-5.39 387.60-6.23L387.60-6.23L387.60-6.23Q389.18-7.07 390.37-8.48L390.37-8.48L390.37-8.48Q391.56-9.88 392.38-11.68L392.38-11.68L392.38-11.68Q393.20-13.48 393.71-15.39L393.71-15.39L393.71-15.39Q394.22-17.30 394.45-19.20L394.45-19.20L394.45-19.20Q394.69-21.09 394.69-22.66" fill="#f1edf1" stroke="none" stroke-width="none" transform="translate(-251.30499267578125,23.482961675470523)" style="fill: rgb(214, 171, 232);"></path></g><g class="path" style="opacity: 1; transform-origin: 188.07px 0.827963px; animation: 1s linear -0.06s infinite normal forwards running fade-f07a7fa5-cbaf-4d08-88b4-9aa1487c1b13;"><path d="M429.84-21.41L429.84-21.41L429.84-21.41Q432.27-20.86 434.69-20.55L434.69-20.55L434.69-20.55Q437.11-20.23 439.57-20.23L439.57-20.23L439.57-20.23Q442.15-20.23 444.36-20.72L444.36-20.72L444.36-20.72Q446.56-21.21 448.18-22.36L448.18-22.36L448.18-22.36Q449.80-23.52 450.74-25.43L450.74-25.43L450.74-25.43Q451.68-27.34 451.68-30.20L451.68-30.20L451.68-30.20Q451.68-32.50 451.05-34.41L451.05-34.41L451.05-34.41Q450.43-36.33 449.20-37.70L449.20-37.70L449.20-37.70Q447.97-39.06 446.17-39.82L446.17-39.82L446.17-39.82Q444.38-40.59 441.99-40.59L441.99-40.59L441.99-40.59Q439.77-40.59 437.99-39.77L437.99-39.77L437.99-39.77Q436.21-38.95 434.86-37.56L434.86-37.56L434.86-37.56Q433.52-36.17 432.56-34.34L432.56-34.34L432.56-34.34Q431.60-32.50 430.98-30.51L430.98-30.51L430.98-30.51Q430.35-28.52 430.08-26.48L430.08-26.48L430.08-26.48Q429.80-24.45 429.80-22.66L429.80-22.66L429.80-22.66Q429.80-22.34 429.80-22.03L429.80-22.03L429.80-22.03Q429.80-21.72 429.84-21.41zM462.38-30.31L462.38-30.31L462.38-30.31Q462.38-27.54 461.48-25.37L461.48-25.37L461.48-25.37Q460.59-23.20 459.04-21.56L459.04-21.56L459.04-21.56Q457.50-19.92 455.47-18.79L455.47-18.79L455.47-18.79Q453.44-17.66 451.13-16.93L451.13-16.93L451.13-16.93Q448.83-16.21 446.39-15.90L446.39-15.90L446.39-15.90Q443.95-15.59 441.64-15.59L441.64-15.59L441.64-15.59Q438.71-15.59 435.86-16.00L435.86-16.00L435.86-16.00Q433.01-16.41 430.23-17.30L430.23-17.30L430.23-17.30Q430.66-14.73 431.60-12.40L431.60-12.40L431.60-12.40Q432.54-10.08 434.10-8.34L434.10-8.34L434.10-8.34Q435.66-6.60 437.95-5.59L437.95-5.59L437.95-5.59Q440.23-4.57 443.36-4.57L443.36-4.57L443.36-4.57Q445.43-4.57 447.30-5.20L447.30-5.20L447.30-5.20Q449.18-5.82 450.74-6.95L450.74-6.95L450.74-6.95Q452.30-8.09 453.50-9.65L453.50-9.65L453.50-9.65Q454.69-11.21 455.43-13.13L455.43-13.13L461.13-11.02L461.13-11.02Q459.84-7.93 457.60-5.68L457.60-5.68L457.60-5.68Q455.35-3.44 452.52-1.97L452.52-1.97L452.52-1.97Q449.69-0.51 446.50 0.20L446.50 0.20L446.50 0.20Q443.32 0.90 440.20 0.90L440.20 0.90L440.20 0.90Q435.04 0.90 430.66-0.84L430.66-0.84L430.66-0.84Q426.29-2.58 423.13-5.70L423.13-5.70L423.13-5.70Q419.96-8.83 418.16-13.16L418.16-13.16L418.16-13.16Q416.37-17.50 416.37-22.66L416.37-22.66L416.37-22.66Q416.37-27.81 418.16-32.15L418.16-32.15L418.16-32.15Q419.96-36.48 423.13-39.61L423.13-39.61L423.13-39.61Q426.29-42.73 430.66-44.47L430.66-44.47L430.66-44.47Q435.04-46.21 440.20-46.21L440.20-46.21L440.20-46.21Q442.70-46.21 445.31-45.86L445.31-45.86L445.31-45.86Q447.93-45.51 450.39-44.75L450.39-44.75L450.39-44.75Q452.85-43.98 455.04-42.77L455.04-42.77L455.04-42.77Q457.23-41.56 458.85-39.79L458.85-39.79L458.85-39.79Q460.47-38.01 461.43-35.66L461.43-35.66L461.43-35.66Q462.38-33.32 462.38-30.31" fill="#f1edf1" stroke="none" stroke-width="none" transform="translate(-251.30499267578125,23.482961675470523)" style="fill: rgb(200, 156, 234);"></path></g><g class="path" style="opacity: 1; transform-origin: 238.5px 0.377962px; animation: 1s linear 0s infinite normal forwards running fade-f07a7fa5-cbaf-4d08-88b4-9aa1487c1b13;"><path d="M508.98-41.13L508.98-41.13L501.56-28.83L501.56-28.83Q501.09-30.39 500.35-32.34L500.35-32.34L500.35-32.34Q499.61-34.30 498.52-36.00L498.52-36.00L498.52-36.00Q497.42-37.70 495.90-38.85L495.90-38.85L495.90-38.85Q494.38-40 492.38-40L492.38-40L492.38-40Q490.55-40 489.20-39.06L489.20-39.06L489.20-39.06Q487.85-38.13 486.91-36.62L486.91-36.62L486.91-36.62Q485.98-35.12 485.37-33.22L485.37-33.22L485.37-33.22Q484.77-31.33 484.43-29.39L484.43-29.39L484.43-29.39Q484.10-27.46 483.98-25.68L483.98-25.68L483.98-25.68Q483.87-23.91 483.87-22.62L483.87-22.62L483.87 0L470.63 0L470.63-45.12L475.70-45.12L481.05-34.61L481.05-34.61Q482.15-37.15 483.55-39.28L483.55-39.28L483.55-39.28Q484.96-41.41 486.80-42.95L486.80-42.95L486.80-42.95Q488.63-44.49 490.96-45.35L490.96-45.35L490.96-45.35Q493.28-46.21 496.21-46.21L496.21-46.21L496.21-46.21Q497.73-46.21 499.61-45.96L499.61-45.96L499.61-45.96Q501.48-45.70 503.28-45.10L503.28-45.10L503.28-45.10Q505.08-44.49 506.60-43.52L506.60-43.52L506.60-43.52Q508.13-42.54 508.98-41.13" fill="#f1edf1" stroke="none" stroke-width="none" transform="translate(-251.30499267578125,23.482961675470523)" style="fill: rgb(241, 237, 241);"></path></g></g>
</g>
</g>
<style id="fade-f07a7fa5-cbaf-4d08-88b4-9aa1487c1b13" data-anikit="">@keyframes fade-f07a7fa5-cbaf-4d08-88b4-9aa1487c1b13
{
  0% {
    animation-timing-function: cubic-bezier(0.2057,0.573,0.3723,0.9184);
    opacity: 1;
  }
  100% {
    opacity: 0;
  }
}</style></svg>